<?xml version="1.0" encoding="utf-8"?>
<!-- Generator: Adobe Illustrator 26.0.2, SVG Export Plug-In . SVG Version: 6.00 Build 0)  -->
<svg version="1.1" id="Layer_1" xmlns="http://www.w3.org/2000/svg" xmlns:xlink="http://www.w3.org/1999/xlink" x="0px" y="0px"
	 viewBox="0 0 332 104" style="enable-background:new 0 0 332 104;" xml:space="preserve">
<style type="text/css">
	.st0{fill:#29B2FE;}
	.st1{fill:#FFFFFF;}
</style>
<g>
	<g id="Freelancer-brand">
		<g id="_x2D_--freelancer-locGO-WHITE" transform="translate(-1547.000000, -540.000000)">
			<g id="Freelancer-logo-minimized" transform="translate(1547.000000, 540.000000)">
				<g id="Group-6-Copy">
					<polygon id="Fill-1" class="st0" points="73.3,15.9 79.9,25.2 113.4,15.9 					"/>
					<polygon id="Fill-2" class="st0" points="38.5,87.9 56.6,70.3 45.7,58.6 					"/>
					<polygon id="Fill-3" class="st0" points="70.5,15.9 60.9,24.6 77.2,25.2 					"/>
					<polygon id="Fill-4" class="st0" points="32.9,15.9 36.4,23 55.5,24.2 					"/>
					<polygon id="Fill-5_1_" class="st0" points="43.1,52.7 57.3,26.4 16.2,24.2 					"/>
					<polygon id="Fill-6" class="st0" points="44.8,54.4 58.2,68.7 72.9,54.3 77.5,27.5 59.5,26.6 					"/>
				</g>
			</g>
		</g>
	</g>
	<path id="XMLID_43_" class="st1" d="M101.6,49.7h-3.7l-3.2,20.2c-0.1,0.5-0.6,1-1.1,1h-7.3c-0.5,0-0.9-0.4-0.8-1L90,41.5
		c1.1-7.2,4.8-8.8,9.7-8.8c1.5,0,3.2,0.1,4.4,0.4c0.6,0.1,0.9,0.4,0.9,1l-0.7,4.6c-0.1,0.5-0.6,0.9-1.2,0.9h-2
		c-1.2,0-1.6,0.5-1.9,1.9L99,42.8h3.7c0.5,0,0.9,0.4,0.8,1l-0.8,4.9C102.6,49.2,102.1,49.7,101.6,49.7z"/>
	<path id="XMLID_41_" class="st1" d="M119.9,50h-0.7c-2.1,0-4.1,0.3-5.7,1.1l-3,18.7c-0.1,0.5-0.6,1.1-1.1,1.1h-7.2
		c-0.6,0-1-0.5-0.9-1.1l4.1-26c0.1-0.5,0.4-1,1.1-1h7c0.7,0,0.9,0.2,0.8,1l-0.2,1.2c2.5-2.3,4.3-2.5,6.9-2.5c0.8,0,0.9,0.2,0.8,1
		l-0.9,5.9C120.8,49.9,120.6,50,119.9,50z"/>
	<path id="XMLID_38_" class="st1" d="M144.2,59.4h-15l0,0.1c-0.4,2.5,0.4,4.1,3.9,4.1c2.6,0,7.3-0.2,9.2-0.4c0.8,0,1,0.1,0.9,0.8
		l-0.7,4.3c-0.1,0.8-0.4,1.1-1.2,1.3c-3.3,1-6.7,1.5-10.7,1.5c-6.5,0-12-3.4-10.6-12.6l0.5-3.2c1.3-8.5,7-13.1,14.9-13.1
		c8.5,0,11.5,5.3,10.3,13.1l-0.5,2.9C145.3,59,144.8,59.4,144.2,59.4z M137.2,54.2c0.5-2.9-0.4-4.6-2.8-4.6c-2.3,0-3.8,1.7-4.3,4.6
		l0,0.1h7.1L137.2,54.2z"/>
	<path id="XMLID_35_" class="st1" d="M170.9,59.4h-15l0,0.1c-0.4,2.5,0.4,4.1,3.9,4.1c2.6,0,7.3-0.2,9.2-0.4c0.8,0,1,0.1,0.9,0.8
		l-0.7,4.3c-0.1,0.8-0.4,1.1-1.2,1.3c-3.3,1-6.7,1.5-10.7,1.5c-6.5,0-12-3.4-10.6-12.6l0.5-3.2c1.3-8.5,7-13.1,14.9-13.1
		c8.5,0,11.5,5.3,10.3,13.1l-0.5,2.9C172,59,171.5,59.4,170.9,59.4z M163.9,54.2c0.5-2.9-0.4-4.6-2.8-4.6c-2.3,0-3.8,1.7-4.3,4.6
		l0,0.1h7.1L163.9,54.2z"/>
	<path id="XMLID_33_" class="st1" d="M180.7,70.8h-7.3c-0.5,0-1-0.5-0.9-1.1l5.6-35.1c0.1-0.5,0.7-1,1.2-1h7.3c0.5,0,0.9,0.4,0.8,1
		l-5.6,35.1C181.8,70.3,181.3,70.8,180.7,70.8z"/>
	<path id="XMLID_30_" class="st1" d="M206.4,70.8h-6.7c-0.5,0-0.9-0.4-0.8-1l0.2-1c-2,1.3-4.6,2.4-7.3,2.4c-3.8,0-7.9-2.1-6.9-8.6
		l0.1-0.6c0.9-5.8,5.6-7.8,13.7-7.8h2.1l0.2-1.4c0.4-2.4-0.3-2.8-2.7-2.8c-2.7,0-7.1,0.2-8.5,0.3c-0.8,0-1-0.4-0.9-1l0.7-4.7
		c0.1-0.7,0.5-1,1.1-1.2c1.7-0.5,5.9-1.2,9-1.2c7,0,11.7,2.5,10.5,10.4l-2.7,17C207.4,70.4,206.9,70.8,206.4,70.8z M200.2,59.2h-2.4
		c-2.4,0-3.5,0.8-3.8,2.8l-0.1,0.5c-0.3,1.6,0.8,2.1,2.1,2.1c1.2,0,2.5-0.3,3.4-0.7L200.2,59.2z"/>
	<path id="XMLID_28_" class="st1" d="M234.3,70.8H227c-0.6,0-1-0.5-0.9-1.1l2.6-16.3c0.4-2.5-0.3-3.4-2.5-3.4c-1.1,0-2.6,0.4-3.8,1
		l-3,18.7c-0.1,0.5-0.6,1.1-1.1,1.1h-7.2c-0.6,0-1-0.5-0.9-1.1l4.1-26c0.1-0.5,0.6-1,1.1-1h6.7c0.5,0,0.9,0.4,0.8,1l-0.2,1.1
		c2.9-1.9,5.7-2.5,8.4-2.5c7.6,0,7.7,5.3,6.8,11l-2.6,16.3C235.3,70.3,234.9,70.8,234.3,70.8z"/>
	<path id="XMLID_26_" class="st1" d="M255.7,70.5c-1.7,0.4-3.9,0.8-6.7,0.8c-7.4,0-10.8-4.7-9.5-12.6l0.6-3.6
		c1.2-7.8,6.2-12.6,13.6-12.6c2.8,0,5.2,0.4,6.5,0.8c0.6,0.1,0.9,0.4,0.8,1l-0.9,5.4c-0.1,0.6-0.5,1-1.2,0.9
		c-1.6-0.1-3.1-0.3-5.5-0.3c-2.1,0-3.5,1.3-4.1,4.9l-0.6,3.6c-0.6,3.6,0.4,4.8,2.5,4.8c2.4,0,3.9-0.1,5.6-0.3c0.7-0.1,1,0.3,0.9,0.9
		l-0.9,5.4C256.7,70.1,256.4,70.3,255.7,70.5z"/>
	<path id="XMLID_23_" class="st1" d="M284.1,59.4h-15l0,0.1c-0.4,2.5,0.4,4.1,3.9,4.1c2.6,0,7.3-0.2,9.2-0.4c0.8,0,1,0.1,0.9,0.8
		l-0.7,4.3c-0.1,0.8-0.4,1.1-1.2,1.3c-3.3,1-6.7,1.5-10.7,1.5c-6.5,0-12-3.4-10.6-12.6l0.5-3.2c1.3-8.5,7-13.1,14.9-13.1
		c8.5,0,11.5,5.3,10.3,13.1l-0.5,2.9C285.1,59,284.6,59.4,284.1,59.4z M277,54.2c0.5-2.9-0.4-4.6-2.8-4.6c-2.3,0-3.8,1.7-4.3,4.6
		l0,0.1h7.1L277,54.2z"/>
	<path id="XMLID_21_" class="st1" d="M299.3,42.8L295,69.8c-0.1,0.5-0.6,1.1-1.1,1.1h-7.2c-0.6,0-1-0.5-0.9-1.1l2.9-17.8L299.3,42.8
		z"/>
	<polygon id="Fill-39_1_" class="st0" points="301.7,42.8 300.2,52.1 316.2,42.8 	"/>
</g>
</svg>
