<?xml version="1.0" encoding="utf-8"?>
<!-- Generator: Adobe Illustrator 26.0.2, SVG Export Plug-In . SVG Version: 6.00 Build 0)  -->
<svg version="1.1" id="Layer_1" xmlns="http://www.w3.org/2000/svg" xmlns:xlink="http://www.w3.org/1999/xlink" x="0px" y="0px"
	 viewBox="0 0 708.7 708.7" style="enable-background:new 0 0 708.7 708.7;" xml:space="preserve">
<style type="text/css">
	.st0{fill:#FFFFFF;}
</style>
<g>
	<path class="st0" d="M248,423.5h3.3c2.7,0,4.6,1.9,4.6,4.9s-1.8,5-4.6,5H248V423.5z M248.8,432.7h2.4c2.6,0,3.9-1.8,3.9-4.3
		c0-2.2-1.2-4.2-3.9-4.2h-2.4V432.7z M265,422.9h0.7v1.4H265V422.9z M265,426.3h0.7v7.1H265V426.3z M280.5,432.9
		c0,2.3-1,3.5-3.1,3.5c-1.8,0-2.6-1-2.8-2.1h0.7c0.3,1,1.1,1.4,2.1,1.4c1.8,0,2.3-1.2,2.3-3V432c-0.4,0.9-1.1,1.4-2.4,1.4
		c-1.7,0-2.9-1.3-2.9-3.5c0-2.4,1.4-3.7,3-3.7c1.4,0,2.1,0.7,2.3,1.2c0-0.4,0-0.9,0-1.1h0.7c0,0.3,0,1.4,0,2.1L280.5,432.9
		L280.5,432.9z M275.3,429.8c0,1.7,0.9,2.9,2.2,2.9c1.8,0,2.3-1.2,2.3-3c0-1.9-0.6-2.9-2.3-2.9C276,426.8,275.3,428.2,275.3,429.8z
		 M289.9,422.9h0.7v1.4h-0.7V422.9z M289.9,426.3h0.7v7.1h-0.7V426.3z M299.1,426.3h1.3v-2.2h0.7v2.2h1.7v0.7h-1.7v4.6
		c0,0.8,0.2,1.2,0.8,1.2c0.2,0,0.5,0,0.7-0.1v0.6c-0.2,0.1-0.6,0.1-0.9,0.1c-0.9,0-1.4-0.5-1.4-1.6V427H299L299.1,426.3L299.1,426.3
		z M316.1,432c0,0.6,0.1,1.1,0.1,1.3h-0.7c-0.1-0.2-0.1-0.5-0.1-1.1c-0.2,0.5-0.9,1.3-2.3,1.3c-1.6,0-2.3-1.1-2.3-2.1
		c0-1.6,1.2-2.3,3.3-2.3c0.6,0,1.1,0,1.3,0v-0.7c0-0.7-0.2-1.7-1.8-1.7c-1.4,0-1.6,0.7-1.8,1.3h-0.7c0.1-0.8,0.6-2,2.5-2
		c1.6,0,2.5,0.7,2.5,2.2V432z M315.4,429.8c-0.3,0-0.9,0-1.4,0c-1.6,0-2.5,0.4-2.5,1.6c0,0.9,0.6,1.5,1.6,1.5c2,0,2.3-1.3,2.3-2.9
		V429.8z M325.5,433.4V423h0.7v10.4H325.5z M355.2,428.8c0-1.9,0-3.8,0.1-4.8l0,0c-0.4,1.3-2.4,6.2-3.7,9.3h-0.7
		c-0.9-2.4-3-7.8-3.5-9.3l0,0c0.1,1.1,0.1,3.4,0.1,5.1v4.2h-0.8v-9.9h1.1c1.4,3.4,3.1,7.8,3.4,9l0,0c0.2-0.7,2.2-5.7,3.6-9h1.1v9.9
		h-0.8L355.2,428.8L355.2,428.8z M370.2,432c0,0.6,0.1,1.1,0.1,1.3h-0.7c-0.1-0.2-0.1-0.5-0.1-1.1c-0.2,0.5-0.9,1.3-2.3,1.3
		c-1.6,0-2.3-1.1-2.3-2.1c0-1.6,1.2-2.3,3.3-2.3c0.6,0,1.1,0,1.3,0v-0.7c0-0.7-0.2-1.7-1.8-1.7c-1.4,0-1.6,0.7-1.8,1.3h-0.7
		c0.1-0.8,0.6-2,2.5-2c1.6,0,2.5,0.7,2.5,2.2V432z M369.5,429.8c-0.3,0-0.9,0-1.4,0c-1.6,0-2.5,0.4-2.5,1.6c0,0.9,0.6,1.5,1.6,1.5
		c2,0,2.3-1.3,2.3-2.9V429.8z M379.6,428.2c0-1.2,0-1.7,0-1.9h0.7c0,0.2,0,0.7,0,1.6c0.4-1.1,1.3-1.7,2.5-1.8v0.8
		c-1.5,0.1-2.5,1.1-2.5,2.8v3.7h-0.7V428.2z M392,429.9c0.7-0.7,2.6-2.7,3.6-3.6h0.9l-2.8,2.8l3.2,4.3H396l-2.8-3.8l-1.2,1.1v2.7
		h-0.7V423h0.7L392,429.9L392,429.9z M405,429.9c0,1.8,0.9,3,2.3,3c1.3,0,1.8-0.7,2-1.3h0.7c-0.3,0.9-1,2-2.8,2c-2.1,0-3-1.9-3-3.6
		c0-2,1-3.8,3.1-3.8c2.2,0,2.9,1.9,2.9,3.2c0,0.2,0,0.4,0,0.6H405V429.9z M409.5,429.3c0-1.4-0.8-2.5-2.2-2.5c-1.5,0-2.1,1-2.3,2.5
		H409.5z M418.1,426.3h1.3v-2.2h0.7v2.2h1.7v0.7h-1.7v4.6c0,0.8,0.2,1.2,0.8,1.2c0.2,0,0.5,0,0.7-0.1v0.6c-0.2,0.1-0.6,0.1-0.9,0.1
		c-0.9,0-1.4-0.5-1.4-1.6V427H418L418.1,426.3L418.1,426.3z M430.3,422.9h0.7v1.4h-0.7V422.9z M430.3,426.3h0.7v7.1h-0.7V426.3z
		 M440.4,428.1c0-0.6,0-1.2,0-1.8h0.7c0,0.2,0,1.1,0,1.3c0.3-0.7,0.9-1.5,2.3-1.5c1.3,0,2.4,0.7,2.4,2.7v4.6h-0.7v-4.5
		c0-1.3-0.5-2.1-1.8-2.1c-1.7,0-2.3,1.4-2.3,2.9v3.6h-0.7v-5.2H440.4z M460.6,432.9c0,2.3-1,3.5-3.1,3.5c-1.8,0-2.6-1-2.8-2.1h0.7
		c0.3,1,1.1,1.4,2.1,1.4c1.8,0,2.3-1.2,2.3-3V432c-0.4,0.9-1.1,1.4-2.4,1.4c-1.7,0-2.9-1.3-2.9-3.5c0-2.4,1.4-3.7,3-3.7
		c1.4,0,2.1,0.7,2.3,1.2c0-0.4,0-0.9,0-1.1h0.7c0,0.3,0,1.4,0,2.1L460.6,432.9L460.6,432.9z M455.4,429.8c0,1.7,0.9,2.9,2.2,2.9
		c1.8,0,2.3-1.2,2.3-3c0-1.9-0.6-2.9-2.3-2.9C456,426.8,455.4,428.2,455.4,429.8z"/>
	<g>
		<rect x="395.3" y="309" class="st0" width="26" height="98.6"/>
		<polygon class="st0" points="309.4,407.7 336.6,360.5 368,407.7 		"/>
		<polygon class="st0" points="347,270.1 317,293.5 291.5,337.6 276.9,362.9 251.1,407.7 276.9,407.7 281,407.7 320.6,339.2 
			347,293.5 		"/>
		<polygon class="st0" points="372.9,270.1 372.9,293.5 444.1,293.5 451.6,280.5 457.6,270.1 		"/>
	</g>
</g>
</svg>
