<?xml version="1.0" encoding="utf-8"?>
<!-- Generator: Adobe Illustrator 26.0.2, SVG Export Plug-In . SVG Version: 6.00 Build 0)  -->
<svg version="1.1" id="Layer_1" xmlns="http://www.w3.org/2000/svg" xmlns:xlink="http://www.w3.org/1999/xlink" x="0px" y="0px"
	 viewBox="0 0 1218.9 297.6" style="enable-background:new 0 0 1218.9 297.6;" xml:space="preserve">
<style type="text/css">
	.st0{fill:#34C6F4;}
	.st1{fill:#FFFFFF;}
	.st2{fill:#4C4B4C;}
</style>
<g>
	<g>
		<g>
			<path class="st0" d="M252.1,290.6H45.5c-21.1,0-38.5-17.3-38.5-38.5V45.5c0-21.1,17.3-38.5,38.5-38.5h206.6
				c21.1,0,38.5,17.3,38.5,38.5v206.6C290.6,273.2,273.2,290.6,252.1,290.6z"/>
			<g>
				<g>
					<rect x="194.7" y="115.4" class="st1" width="29" height="110.4"/>
					<polygon class="st1" points="98.5,225.8 129,173 164.1,225.8 					"/>
					<polygon class="st1" points="140.6,71.9 107.1,98 78.5,147.4 62.2,175.7 33.3,225.8 62.2,225.8 66.8,225.8 111,149.2 140.6,98 
											"/>
					<polygon class="st1" points="169.6,71.8 169.6,98 249.3,98 257.7,83.4 264.4,71.8 					"/>
				</g>
			</g>
		</g>
	</g>
	<path class="st2" d="M377.6,201.4l15.2,2.3c0.6,4.7,2.4,8.1,5.3,10.2c3.9,2.9,9.2,4.3,15.9,4.3c7.2,0,12.8-1.4,16.7-4.3
		c3.9-2.9,6.6-6.9,8-12.1c0.8-3.2,1.2-9.9,1.1-20c-6.8,8-15.3,12.1-25.5,12.1c-12.7,0-22.5-4.6-29.4-13.7
		c-6.9-9.1-10.4-20.1-10.4-32.9c0-8.8,1.6-16.9,4.8-24.3c3.2-7.4,7.8-13.2,13.8-17.2c6-4,13.1-6.1,21.3-6.1
		c10.9,0,19.8,4.4,26.9,13.2v-11.1h14.4v79.6c0,14.3-1.5,24.5-4.4,30.5c-2.9,6-7.5,10.7-13.9,14.2c-6.3,3.5-14.1,5.2-23.4,5.2
		c-11,0-19.9-2.5-26.6-7.4C380.6,218.7,377.4,211.3,377.6,201.4z M390.5,146c0,12.1,2.4,20.9,7.2,26.5c4.8,5.6,10.8,8.3,18,8.3
		c7.2,0,13.2-2.8,18-8.3c4.9-5.5,7.3-14.2,7.3-26c0-11.3-2.5-19.8-7.5-25.5c-5-5.7-11-8.6-18.1-8.6c-6.9,0-12.8,2.8-17.7,8.5
		C392.9,126.5,390.5,134.9,390.5,146z"/>
	<path class="st2" d="M473.5,147.6c0-17.1,4.7-29.7,14.2-37.9c7.9-6.8,17.6-10.2,29-10.2c12.7,0,23,4.2,31.1,12.5
		c8,8.3,12.1,19.8,12.1,34.4c0,11.9-1.8,21.2-5.3,28c-3.6,6.8-8.7,12.1-15.5,15.8c-6.8,3.8-14.2,5.6-22.3,5.6
		c-12.9,0-23.3-4.1-31.3-12.4C477.4,175.1,473.5,163.2,473.5,147.6z M489.5,147.6c0,11.8,2.6,20.6,7.7,26.5
		c5.1,5.9,11.6,8.8,19.4,8.8c7.8,0,14.2-3,19.3-8.8c5.1-5.9,7.7-14.9,7.7-27c0-11.4-2.6-20-7.8-25.9c-5.2-5.9-11.6-8.8-19.3-8.8
		c-7.8,0-14.3,2.9-19.4,8.8C492.1,127,489.5,135.8,489.5,147.6z"/>
	<path class="st2" d="M612.2,179.7l2.3,13.8c-4.4,0.9-8.3,1.4-11.8,1.4c-5.7,0-10.1-0.9-13.2-2.7c-3.1-1.8-5.3-4.1-6.6-7.1
		c-1.3-2.9-1.9-9.1-1.9-18.4v-53h-11.5v-12.1H581V78.8l15.5-9.4v32.2h15.7v12.1h-15.7v53.9c0,4.5,0.3,7.3,0.8,8.6
		c0.5,1.3,1.4,2.3,2.7,3c1.2,0.8,3,1.1,5.3,1.1C607.1,180.4,609.4,180.2,612.2,179.7z"/>
	<path class="st0" d="M687.6,182.4c-5.8,4.9-11.4,8.4-16.7,10.4c-5.4,2-11.1,3-17.2,3c-10.1,0-17.9-2.5-23.3-7.4
		c-5.4-4.9-8.2-11.3-8.2-19c0-4.5,1-8.6,3.1-12.4c2.1-3.7,4.7-6.7,8.1-9c3.3-2.3,7.1-4,11.2-5.1c3.1-0.8,7.7-1.6,13.9-2.3
		c12.6-1.5,21.9-3.3,27.9-5.4c0.1-2.1,0.1-3.5,0.1-4.1c0-6.4-1.5-10.8-4.4-13.4c-4-3.5-9.9-5.3-17.8-5.3c-7.3,0-12.8,1.3-16.3,3.9
		c-3.5,2.6-6.1,7.1-7.8,13.7l-15.3-2.1c1.4-6.5,3.7-11.8,6.9-15.8c3.2-4,7.8-7.1,13.8-9.3c6-2.2,13-3.3,20.9-3.3
		c7.9,0,14.3,0.9,19.2,2.8c4.9,1.9,8.5,4.2,10.8,7c2.3,2.8,3.9,6.3,4.9,10.6c0.5,2.7,0.8,7.5,0.8,14.4v20.8c0,14.5,0.3,23.7,1,27.5
		c0.7,3.8,2,7.5,3.9,11.1h-16.3C689.1,190.5,688.1,186.7,687.6,182.4z M686.3,147.5c-5.7,2.3-14.2,4.3-25.5,5.9
		c-6.4,0.9-11,2-13.6,3.1c-2.7,1.2-4.7,2.8-6.2,5.1c-1.4,2.2-2.2,4.7-2.2,7.4c0,4.2,1.6,7.6,4.7,10.4c3.2,2.8,7.8,4.2,13.8,4.2
		c6,0,11.4-1.3,16.1-3.9c4.7-2.6,8.1-6.2,10.3-10.8c1.7-3.5,2.5-8.7,2.5-15.6V147.5z"/>
	<path class="st0" d="M760.4,179.7l2.3,13.8c-4.4,0.9-8.3,1.4-11.8,1.4c-5.7,0-10.1-0.9-13.2-2.7c-3.1-1.8-5.3-4.1-6.6-7.1
		c-1.3-2.9-1.9-9.1-1.9-18.4v-53h-11.5v-12.1h11.5V78.8l15.5-9.4v32.2h15.7v12.1h-15.7v53.9c0,4.5,0.3,7.3,0.8,8.6
		c0.5,1.3,1.4,2.3,2.7,3c1.2,0.8,3,1.1,5.3,1.1C755.3,180.4,757.6,180.2,760.4,179.7z"/>
	<path class="st2" d="M780.1,193.7v-17.8h17.8v17.8H780.1z"/>
	<path class="st2" d="M825,193.7v-92.1h14v12.9c2.9-4.5,6.7-8.1,11.5-10.9c4.8-2.7,10.3-4.1,16.4-4.1c6.8,0,12.4,1.4,16.8,4.3
		c4.4,2.8,7.4,6.8,9.2,11.9c7.3-10.8,16.8-16.1,28.5-16.1c9.1,0,16.2,2.5,21.1,7.6c4.9,5.1,7.4,12.9,7.4,23.4v63.2h-15.5v-58
		c0-6.2-0.5-10.7-1.5-13.5c-1-2.7-2.8-5-5.5-6.6c-2.7-1.7-5.8-2.5-9.4-2.5c-6.5,0-11.9,2.2-16.1,6.5c-4.3,4.3-6.4,11.2-6.4,20.7
		v53.5h-15.6v-59.9c0-6.9-1.3-12.1-3.8-15.6c-2.5-3.5-6.7-5.2-12.5-5.2c-4.4,0-8.5,1.2-12.2,3.5c-3.7,2.3-6.4,5.7-8.1,10.2
		c-1.7,4.5-2.5,10.9-2.5,19.3v47.8H825z"/>
	<path class="st2" d="M972.3,229.2l-1.7-14.7c3.4,0.9,6.4,1.4,8.9,1.4c3.5,0,6.2-0.6,8.3-1.7c2.1-1.2,3.8-2.8,5.1-4.9
		c1-1.6,2.6-5.4,4.8-11.6c0.3-0.9,0.8-2.1,1.4-3.8l-35-92.3H981l19.2,53.4c2.5,6.8,4.7,13.9,6.7,21.3c1.8-7.2,3.9-14.2,6.4-21
		l19.7-53.7h15.6l-35.1,93.7c-3.8,10.1-6.7,17.1-8.8,20.9c-2.8,5.1-6,8.9-9.5,11.3c-3.6,2.4-7.9,3.6-12.8,3.6
		C979.4,231.1,976,230.5,972.3,229.2z"/>
	<path class="st2" d="M1053.1,193.7v-17.8h17.8v17.8H1053.1z"/>
	<path class="st2" d="M1098.2,84.5v-18h15.6v18H1098.2z M1098.2,193.7v-92.1h15.6v92.1H1098.2z"/>
	<path class="st2" d="M1197.3,193.7v-11.6c-5.8,9.1-14.4,13.7-25.8,13.7c-7.3,0-14.1-2-20.3-6.1c-6.2-4-10.9-9.7-14.3-17
		c-3.4-7.3-5.1-15.6-5.1-25c0-9.2,1.5-17.5,4.6-25c3.1-7.5,7.7-13.2,13.8-17.2c6.1-4,13-6,20.6-6c5.6,0,10.5,1.2,14.8,3.5
		c4.3,2.3,7.9,5.4,10.6,9.2V66.5h15.5v127.2H1197.3z M1148,147.7c0,11.8,2.5,20.6,7.5,26.5c5,5.8,10.8,8.8,17.6,8.8
		c6.8,0,12.6-2.8,17.4-8.4c4.8-5.6,7.2-14.1,7.2-25.6c0-12.6-2.4-21.9-7.3-27.8c-4.9-5.9-10.8-8.8-18-8.8c-6.9,0-12.7,2.8-17.4,8.5
		C1150.3,126.6,1148,135.5,1148,147.7z"/>
</g>
</svg>
